<svg xmlns="http://www.w3.org/2000/svg" xmlns:xlink="http://www.w3.org/1999/xlink" contentstyletype="text/css" height="761px" preserveAspectRatio="none" style="width:848px;height:761px;" version="1.1" viewBox="0 0 848 761" width="848px" zoomAndPan="magnify"><defs></defs><g><g id="HS"><rect fill="#F1F1F1" height="50" rx="12.5" ry="12.5" style="stroke:#ffffff;stroke-width:0.5;" width="80" x="584" y="7"></rect><line style="stroke:#ffffff;stroke-width:0.5;" x1="584" x2="664" y1="33.2969" y2="33.2969"></line><text fill="#000000" font-family="sans-serif" font-size="14" lengthAdjust="spacing" textLength="60" x="594" y="24.9951">Har søkt</text></g><g id="TS"><rect fill="#F1F1F1" height="50" rx="12.5" ry="12.5" style="stroke:#ffffff;stroke-width:0.5;" width="58" x="85" y="594"></rect><line style="stroke:#ffffff;stroke-width:0.5;" x1="85" x2="143" y1="620.2969" y2="620.2969"></line><text fill="#000000" font-family="sans-serif" font-size="14" lengthAdjust="spacing" textLength="38" x="95" y="611.9951">Brutt</text></g><g id="LD"><rect fill="#F1F1F1" height="50" rx="12.5" ry="12.5" style="stroke:#ffffff;stroke-width:0.5;" width="182" x="435" y="118"></rect><line style="stroke:#ffffff;stroke-width:0.5;" x1="435" x2="617" y1="144.2969" y2="144.2969"></line><text fill="#000000" font-family="sans-serif" font-size="14" lengthAdjust="spacing" textLength="162" x="445" y="135.9951">Levert dokumentasjon</text></g><g id="FT"><rect fill="#F1F1F1" height="50" rx="12.5" ry="12.5" style="stroke:#ffffff;stroke-width:0.5;" width="96" x="405" y="229"></rect><line style="stroke:#ffffff;stroke-width:0.5;" x1="405" x2="501" y1="255.2969" y2="255.2969"></line><text fill="#000000" font-family="sans-serif" font-size="14" lengthAdjust="spacing" textLength="76" x="415" y="246.9951">Fått tilbud</text></g><g id="SK"><rect fill="#F1F1F1" height="50" rx="12.5" ry="12.5" style="stroke:#ffffff;stroke-width:0.5;" width="141" x="241.5" y="356"></rect><line style="stroke:#ffffff;stroke-width:0.5;" x1="241.5" x2="382.5" y1="382.2969" y2="382.2969"></line><text fill="#000000" font-family="sans-serif" font-size="14" lengthAdjust="spacing" textLength="121" x="251.5" y="373.9951">Signert kontrakt</text></g><g id="S"><rect fill="#F1F1F1" height="50" rx="12.5" ry="12.5" style="stroke:#ffffff;stroke-width:0.5;" width="73" x="226.5" y="483"></rect><line style="stroke:#ffffff;stroke-width:0.5;" x1="226.5" x2="299.5" y1="509.2969" y2="509.2969"></line><text fill="#000000" font-family="sans-serif" font-size="14" lengthAdjust="spacing" textLength="53" x="236.5" y="500.9951">Startet</text></g><g id="IS"><rect fill="#F1F1F1" height="50" rx="12.5" ry="12.5" style="stroke:#ffffff;stroke-width:0.5;" width="106" x="460" y="483"></rect><line style="stroke:#ffffff;stroke-width:0.5;" x1="460" x2="566" y1="509.2969" y2="509.2969"></line><text fill="#000000" font-family="sans-serif" font-size="14" lengthAdjust="spacing" textLength="86" x="470" y="500.9951">Ikke startet</text></g><g id="F"><rect fill="#F1F1F1" height="50" rx="12.5" ry="12.5" style="stroke:#ffffff;stroke-width:0.5;" width="170" x="178" y="594"></rect><line style="stroke:#ffffff;stroke-width:0.5;" x1="178" x2="348" y1="620.2969" y2="620.2969"></line><text fill="#000000" font-family="sans-serif" font-size="14" lengthAdjust="spacing" textLength="150" x="188" y="611.9951">Fullført, ikke bestått</text></g><g id="IB2"><rect fill="#F1F1F1" height="50" rx="12.5" ry="12.5" style="stroke:#ffffff;stroke-width:0.5;" width="282" x="7" y="705"></rect><line style="stroke:#ffffff;stroke-width:0.5;" x1="7" x2="289" y1="731.2969" y2="731.2969"></line><text fill="#000000" font-family="sans-serif" font-size="14" lengthAdjust="spacing" textLength="262" x="17" y="722.9951">Ikke bestått - ikke flere forsøk igjen</text></g><g id="FB"><rect fill="#F1F1F1" height="50" rx="12.5" ry="12.5" style="stroke:#ffffff;stroke-width:0.5;" width="153" x="324.5" y="705"></rect><line style="stroke:#ffffff;stroke-width:0.5;" x1="324.5" x2="477.5" y1="731.2969" y2="731.2969"></line><text fill="#000000" font-family="sans-serif" font-size="14" lengthAdjust="spacing" textLength="133" x="334.5" y="722.9951">Fullført og bestått</text></g><!--link HS to LD--><g id="link_HS_LD"><path d="M602.251,57.191 C586.01,75.254 567.9254,95.3681 551.7004,113.4151 " fill="none" id="HS-to-LD" style="stroke:#ffffff;stroke-width:1.0;"></path><polygon fill="#ffffff" points="547.689,117.877,556.6807,113.8584,551.0319,114.1588,550.7315,108.5099,547.689,117.877" style="stroke:#ffffff;stroke-width:1.0;"></polygon></g><!--link HS to IS--><g id="link_HS_IS"><path d="M640.868,57.316 C653.996,78.635 670,110.985 670,142 C670,142 670,142 670,382 C670,436.352 617.2512,468.6032 571.7042,487.2842 " fill="none" id="HS-to-IS" style="stroke:#ffffff;stroke-width:1.0;"></path><polygon fill="#ffffff" points="566.153,489.561,575.9977,489.8466,570.779,487.6636,572.962,482.445,566.153,489.561" style="stroke:#ffffff;stroke-width:1.0;"></polygon><text fill="#ffffff" font-family="sans-serif" font-size="13" lengthAdjust="spacing" textLength="169" x="671" y="258.5669">Ikke levert dokumentasjon</text></g><!--link LD to FT--><g id="link_LD_FT"><path d="M509.799,168.191 C497.702,186.254 484.5806,205.8447 472.4946,223.8917 " fill="none" id="LD-to-FT" style="stroke:#ffffff;stroke-width:1.0;"></path><polygon fill="#ffffff" points="469.156,228.877,477.4875,223.6248,471.9382,224.7226,470.8404,219.1733,469.156,228.877" style="stroke:#ffffff;stroke-width:1.0;"></polygon></g><!--link LD to IS--><g id="link_LD_IS"><path d="M532.885,168.035 C545.177,214.4 568.163,319.274 552,406 C546.903,433.348 537.2203,457.4034 527.8013,477.4134 " fill="none" id="LD-to-IS" style="stroke:#ffffff;stroke-width:1.0;"></path><polygon fill="#ffffff" points="525.246,482.842,532.6981,476.4026,527.3755,478.3181,525.4599,472.9955,525.246,482.842" style="stroke:#ffffff;stroke-width:1.0;"></polygon><text fill="#ffffff" font-family="sans-serif" font-size="13" lengthAdjust="spacing" textLength="71" x="559" y="322.0669">Fått avslag</text></g><!--link FT to SK--><g id="link_FT_SK"><path d="M425.814,279.101 C400.846,301.236 368.5336,329.8806 343.5926,351.9926 " fill="none" id="FT-to-SK" style="stroke:#ffffff;stroke-width:1.0;"></path><polygon fill="#ffffff" points="339.103,355.973,348.491,352.9955,342.8443,352.656,343.1838,347.0094,339.103,355.973" style="stroke:#ffffff;stroke-width:1.0;"></polygon></g><!--link FT to IS--><g id="link_FT_IS"><path d="M456.242,279.017 C460.529,308.991 468.861,361.707 480,406 C486.703,432.656 494.7629,456.8483 502.0169,477.1363 " fill="none" id="FT-to-IS" style="stroke:#ffffff;stroke-width:1.0;"></path><polygon fill="#ffffff" points="504.037,482.786,504.7734,472.9647,502.3536,478.0779,497.2404,475.6581,504.037,482.786" style="stroke:#ffffff;stroke-width:1.0;"></polygon><text fill="#ffffff" font-family="sans-serif" font-size="13" lengthAdjust="spacing" textLength="66" x="481" y="385.5669">Takket nei</text></g><!--link SK to S--><g id="link_SK_S"><path d="M298.908,406.075 C294.182,415.284 289.025,425.982 285,436 C278.842,451.327 274.9844,463.3062 271.0234,477.2242 " fill="none" id="SK-to-S" style="stroke:#ffffff;stroke-width:1.0;"></path><polygon fill="#ffffff" points="269.381,482.995,275.6918,475.4336,270.7496,478.186,267.9973,473.2438,269.381,482.995" style="stroke:#ffffff;stroke-width:1.0;"></polygon></g><!--link SK to IS--><g id="link_SK_IS"><path d="M307.579,406.313 C306.269,421.387 307.417,440.242 318,453 C336.054,474.765 402.6113,489.5099 453.9123,498.1999 " fill="none" id="SK-to-IS" style="stroke:#ffffff;stroke-width:1.0;"></path><polygon fill="#ffffff" points="459.828,499.202,451.6225,493.7551,454.8982,498.3669,450.2864,501.6427,459.828,499.202" style="stroke:#ffffff;stroke-width:1.0;"></polygon><text fill="#ffffff" font-family="sans-serif" font-size="13" lengthAdjust="spacing" textLength="107" x="319" y="449.0669">Angret/ikke møtt</text></g><!--link S to TS--><g id="link_S_TS"><path d="M229.932,533.191 C204.04,552.132 173.2006,574.6925 148.2856,592.9185 " fill="none" id="S-to-TS" style="stroke:#ffffff;stroke-width:1.0;"></path><polygon fill="#ffffff" points="143.443,596.461,153.0686,594.3757,147.4785,593.5089,148.3452,587.9189,143.443,596.461" style="stroke:#ffffff;stroke-width:1.0;"></polygon></g><!--link S to F--><g id="link_S_F"><path d="M263,533.191 C263,551.254 263,569.83 263,587.877 " fill="none" id="S-to-F" style="stroke:#ffffff;stroke-width:1.0;"></path><polygon fill="#ffffff" points="263,593.877,267,584.877,263,588.877,259,584.877,263,593.877" style="stroke:#ffffff;stroke-width:1.0;"></polygon></g><!--link S to FB--><g id="link_S_FB"><path d="M299.586,531.117 C321.613,546.228 348.499,568.161 365,594 C387.064,628.549 394.9918,670.3568 398.3038,698.8334 " fill="none" id="S-to-FB" style="stroke:#ffffff;stroke-width:1.0;"></path><polygon fill="#ffffff" points="398.997,704.7932,401.9305,695.3914,398.4194,699.8267,393.984,696.3156,398.997,704.7932" style="stroke:#ffffff;stroke-width:1.0;"></polygon></g><!--link F to IB2--><g id="link_F_IB2"><path d="M237.478,644.191 C218.42,662.2538 196.8457,682.7025 177.8057,700.7494 " fill="none" id="F-to-IB2" style="stroke:#ffffff;stroke-width:1.0;"></path><polygon fill="#ffffff" points="173.451,704.877,182.7347,701.5888,177.0799,701.4374,177.2313,695.7825,173.451,704.877" style="stroke:#ffffff;stroke-width:1.0;"></polygon></g><!--link F to FB--><g id="link_F_FB"><path d="M293.627,644.191 C316.496,662.2538 342.9026,683.1111 365.7506,701.158 " fill="none" id="F-to-FB" style="stroke:#ffffff;stroke-width:1.0;"></path><polygon fill="#ffffff" points="370.459,704.877,365.8757,696.1596,366.5353,701.7778,360.9171,702.4374,370.459,704.877" style="stroke:#ffffff;stroke-width:1.0;"></polygon></g></g></svg>
